<svg width="370" height="435" viewBox="0 0 370 435" fill="none" xmlns="http://www.w3.org/2000/svg">
<g clip-path="url(#clip0_743_243)">
<path d="M368.207 137.343C361.304 115.53 336.558 103.143 308.014 105.773C301.489 19.7687 243.648 0.0602417 191.97 0.0602417C140.293 0.0602417 82.4818 19.7537 75.9261 105.638C48.0906 103.684 24.2186 115.996 17.467 137.373C12.78 152.181 17.256 168.462 30.066 183.224C39.9373 194.59 54.4504 204.917 73.349 214.042C72.2187 215.275 71.1638 216.523 70.2143 217.71C68.6365 217.084 66.9304 216.847 65.241 217.019C64.8528 215.371 64.0721 213.842 62.9649 212.559C61.8578 211.277 60.4569 210.28 58.8812 209.653C57.5948 209.139 56.2196 208.884 54.8341 208.9C53.4487 208.917 52.0801 209.206 50.8066 209.75C49.533 210.295 48.3795 211.084 47.4118 212.074C46.4442 213.063 45.6813 214.232 45.1669 215.516C41.7458 224.055 43.2679 236.938 48.7085 245.492C51.4325 250.095 55.8325 253.471 60.9911 254.918C62.6434 257.381 64.833 259.439 67.3959 260.939C69.9589 262.438 72.8287 263.34 75.7905 263.577H76.4234C77.9731 263.573 79.503 263.23 80.9044 262.57C82.3057 261.91 83.5441 260.95 84.5315 259.758C91.3585 260.66 97.8991 256.917 106.324 244.891C112.774 235.675 113.859 228.655 112.111 223.062C125.237 233.586 141.227 239.599 158.95 242.605L139.027 347.627L164.647 352.468L185.023 245.071C187.359 245.071 189.695 245.176 192.061 245.176C195.346 245.176 198.596 245.106 201.811 244.966L184.103 340.126L209.724 344.876L228.908 241.899C246.27 238.426 261.853 231.917 274.527 220.853C271.86 226.761 272.267 234.382 279.546 244.755C287.97 256.782 294.511 260.525 301.323 259.623C302.31 260.814 303.549 261.774 304.95 262.434C306.351 263.094 307.881 263.438 309.431 263.441H310.064C313.026 263.206 315.896 262.305 318.459 260.805C321.022 259.305 323.212 257.246 324.863 254.782C330.022 253.336 334.422 249.959 337.146 245.356C342.602 236.803 344.124 223.919 340.703 215.38C340.19 214.094 339.427 212.921 338.459 211.929C337.491 210.937 336.336 210.145 335.061 209.599C333.785 209.053 332.415 208.764 331.027 208.747C329.639 208.73 328.262 208.987 326.973 209.502C325.396 210.131 323.994 211.13 322.887 212.415C321.779 213.701 320.999 215.234 320.613 216.884C318.924 216.712 317.218 216.949 315.64 217.575C314.691 216.388 313.636 215.14 312.505 213.907C331.404 204.782 345.932 194.454 355.788 183.089C368.403 168.402 372.879 152.121 368.207 137.343ZM42.2582 145.16C44.9709 136.606 57.8865 129.977 75.4137 131.63C76.2878 156.676 80.7789 176.535 88.1032 192.154C51.8281 175.422 38.6413 156.616 42.2582 145.13V145.16ZM153.224 105.698C153.224 85.5087 160.759 69.0473 192 69.0473C223.649 69.0473 230.627 88.4552 230.627 105.698C230.627 122.941 223.619 142.364 192 142.364C160.699 142.364 153.224 125.828 153.224 105.698ZM295.28 193.206C302.815 177.482 307.532 157.382 308.451 131.871C326.853 129.541 340.537 136.381 343.325 145.16C347.017 156.886 333.228 176.189 295.28 193.176V193.206Z" fill="black"/>
<path opacity="0.3" d="M285.288 402.979C284.73 408.301 277.345 422.522 211.999 416.404C194.499 414.754 176.844 416.672 160.111 422.041C134.49 430.295 124.604 433.542 102.963 434.654C23.721 438.758 -67.1852 404.843 73.0926 389.555C83.642 388.412 126.021 382.564 192.724 389.374C259.426 396.184 286.358 392.441 285.288 402.979Z" fill="black"/>
<path d="M223.212 342.471C223.212 342.471 242.141 322.612 226.799 316.118C198.421 306.016 196.778 342.471 196.778 342.471" fill="white"/>
<path d="M186.997 382.384L188.248 346.515L204.479 341.779C233.445 341.238 231.606 348.108 259.095 357.384C268.59 360.601 270.353 377.603 270.353 383.992" fill="white"/>
<path d="M213.371 373.063C218.465 373.063 222.594 368.944 222.594 363.863C222.594 358.782 218.465 354.663 213.371 354.663C208.277 354.663 204.147 358.782 204.147 363.863C204.147 368.944 208.277 373.063 213.371 373.063Z" fill="black"/>
<path d="M125.96 352.889C125.96 352.889 107.032 333.03 122.374 326.536C150.752 316.433 152.394 352.889 152.394 352.889" fill="white"/>
<path d="M161.904 392.486L160.909 356.948L144.678 352.212C115.712 351.656 117.551 358.541 90.0622 367.817C80.5676 371.019 78.9551 386.488 78.9551 392.892" fill="white"/>
<path d="M135.787 383.481C140.881 383.481 145.01 379.362 145.01 374.281C145.01 369.2 140.881 365.081 135.787 365.081C130.693 365.081 126.563 369.2 126.563 374.281C126.563 379.362 130.693 383.481 135.787 383.481Z" fill="black"/>
<path d="M287.217 394.741C286.855 392.516 286.509 390.231 286.147 388.052C285.771 385.81 284.765 383.721 283.248 382.026C281.73 380.332 279.762 379.1 277.572 378.475C275.854 356.392 264.008 351.22 261.476 350.363C254.76 348.09 248.214 345.347 241.884 342.155C239.594 341.028 237.454 339.99 235.253 339.058C238.448 333.917 241.282 327.257 239.955 320.898C239.202 317.245 236.806 312.269 229.768 309.278L229.361 309.112C217.153 304.783 208.865 307.714 204.057 310.931C193.688 317.877 190.629 331.587 189.74 338.367L181.029 340.907L179.733 377.979C178.365 378.448 177.148 379.277 176.212 380.377C175.276 381.478 174.654 382.81 174.413 384.233C174.051 386.548 173.69 388.863 173.313 391.178C172.302 389.829 170.896 388.825 169.289 388.307L168.264 351.325L159.508 348.77C158.619 342.005 155.56 328.295 145.191 321.349C140.383 318.117 132.095 315.186 119.902 319.53L119.48 319.696C112.442 322.702 110.046 327.663 109.293 331.316C107.966 337.66 110.8 344.335 113.995 349.476C111.794 350.408 109.654 351.446 107.364 352.558C101.038 355.762 94.4909 358.51 87.7718 360.781C75.2028 365.021 72.3846 380.806 71.7667 388.848C69.5604 389.475 67.5765 390.71 66.0434 392.413C64.5103 394.115 63.4903 396.214 63.1011 398.469C62.664 401.236 62.2119 404.017 61.7749 406.783C61.7014 407.376 61.7468 407.977 61.9083 408.553C62.0699 409.128 62.3445 409.665 62.716 410.134C63.0876 410.602 63.5488 410.993 64.0728 411.282C64.5968 411.571 65.1732 411.754 65.7686 411.819C100.987 416.925 136.757 416.966 171.987 411.939C172.688 411.865 173.368 411.652 173.987 411.312C174.605 410.973 175.15 410.515 175.589 409.963C176.028 409.412 176.353 408.779 176.544 408.102C176.735 407.424 176.79 406.715 176.704 406.016C176.433 404.347 176.161 402.679 175.905 401.01C176.471 401.285 177.076 401.472 177.698 401.566C212.235 406.467 247.291 406.497 281.837 401.656C283.469 401.45 284.953 400.606 285.961 399.309C286.97 398.013 287.422 396.37 287.217 394.741ZM123.836 334.278C123.836 334.067 124.393 333.707 125.087 333.391C132.622 330.79 135.757 332.91 136.812 333.616C140.142 335.826 142.207 340.411 143.428 344.711C138.712 344.618 133.995 344.829 129.307 345.342C125.961 341.163 123.429 336.262 123.836 334.278ZM86.551 389.45C87.1087 382.7 89.2487 375.92 92.4437 374.807C99.7848 372.304 106.941 369.29 113.859 365.787C122.706 361.473 127.227 359.278 143.563 359.488L153.616 362.495L154.369 389.209C131.828 391.526 109.112 391.627 86.551 389.51V389.45ZM212.346 323.198C213.401 322.492 216.566 320.372 224.071 322.988C224.764 323.289 225.277 323.649 225.322 323.86C225.729 325.799 223.227 330.7 219.836 334.939C215.154 334.412 210.441 334.196 205.73 334.293C206.951 330.053 209.015 325.483 212.346 323.259V323.198ZM194.578 378.821L195.512 352.137L205.594 349.131C221.916 348.905 226.452 351.1 235.299 355.415C242.214 358.923 249.37 361.938 256.714 364.434C259.577 365.397 261.853 372.177 262.622 379.092C239.986 381.224 217.196 381.139 194.578 378.836V378.821Z" fill="black"/>
</g>
<defs>
<clipPath id="clip0_743_243">
<rect width="370" height="435" fill="white"/>
</clipPath>
</defs>
</svg>
